<svg version="1.1" xmlns="http://www.w3.org/2000/svg" xmlns:xlink="http://www.w3.org/1999/xlink" viewBox="0,0,256,256"><g fill="none" fill-rule="nonzero" stroke="none" stroke-width="1" stroke-linecap="butt" stroke-linejoin="miter" stroke-miterlimit="10" stroke-dasharray="" stroke-dashoffset="0" font-family="none" font-weight="none" font-size="none" text-anchor="none" style="mix-blend-mode: normal"><g transform="scale(5.33333,5.33333)"><path d="M33,9h-22v4h22c1.1,0 2,0.9 2,2v20h-12v4h16v-24c0,-3.3 -2.7,-6 -6,-6z" fill="#6c19ff"/><path d="M32,17h10v10h-10zM16,32h10v10h-10zM26,6c-2.761,0 -5,2.239 -5,5c0,2.761 2.239,5 5,5c2.761,0 5,-2.239 5,-5c0,-2.761 -2.239,-5 -5,-5zM37,32c-2.761,0 -5,2.239 -5,5c0,2.761 2.239,5 5,5c2.761,0 5,-2.239 5,-5c0,-2.761 -2.239,-5 -5,-5z" fill="#3dd9eb"/><path d="M6,6h10v10h-10z" fill="#5d48f6"/><rect x="11" y="9" width="5" height="4" fill="#5c7cfa"/><path d="M31,11c0,-0.711 -0.149,-1.388 -0.416,-2h-9.167c-0.268,0.612 -0.417,1.289 -0.417,2c0,0.711 0.149,1.388 0.416,2h9.167c0.268,-0.612 0.417,-1.289 0.417,-2z" fill="#00b3d7"/><rect x="22" y="35" width="4" height="4" fill="#00b3d7"/><rect x="35" y="17" width="4" height="10" fill="#00b3d7"/><path d="M39,32.416c-0.612,-0.267 -1.289,-0.416 -2,-0.416c-0.711,0 -1.388,0.149 -2,0.416v2.584h-2.584c-0.267,0.612 -0.416,1.289 -0.416,2c0,0.711 0.149,1.388 0.416,2h6.584z" fill="#00b3d7"/></g></g></svg>